<?xml version="1.0" standalone="no"?>
<!DOCTYPE svg PUBLIC "-//W3C//DTD SVG 20010904//EN"
 "http://www.w3.org/TR/2001/REC-SVG-20010904/DTD/svg10.dtd">
<svg version="1.0" xmlns="http://www.w3.org/2000/svg"
 width="758.000000pt" height="1280.000000pt" viewBox="0 0 758.000000 1280.000000"
 preserveAspectRatio="xMidYMid meet">
<metadata>
Created by potrace 1.15, written by Peter Selinger 2001-2017
</metadata>
<g transform="translate(0.000000,1280.000000) scale(0.100000,-0.100000)"
fill="#6f83be" stroke="none">
<path d="M2852 12744 c-59 -29 -105 -80 -127 -139 -8 -22 -21 -101 -29 -175
-25 -224 -82 -409 -165 -538 -120 -185 -333 -362 -557 -462 -284 -128 -905
-227 -1537 -246 -197 -6 -204 -6 -263 -35 -37 -17 -73 -43 -88 -64 -58 -75
-56 -55 -56 -687 l0 -583 24 -50 c29 -61 65 -97 131 -127 l50 -23 1093 -3
1092 -3 0 -3559 0 -3560 -1092 0 c-876 -1 -1100 -3 -1130 -14 -57 -21 -114
-72 -142 -128 l-26 -52 0 -645 0 -646 24 -50 c29 -61 65 -97 131 -127 l50 -23
3175 0 3175 0 45 23 c60 32 92 63 121 120 l24 47 0 646 0 645 -30 59 c-34 66
-93 118 -153 135 -24 6 -365 10 -993 10 -526 0 -1004 3 -1062 7 l-107 6 0
5017 c0 4525 -2 5022 -16 5069 -18 63 -77 131 -138 161 -41 20 -57 20 -707 20
l-665 0 -52 -26z"/>
</g>
</svg>
