<?xml version="1.0" standalone="no"?>
<!DOCTYPE svg PUBLIC "-//W3C//DTD SVG 20010904//EN"
 "http://www.w3.org/TR/2001/REC-SVG-20010904/DTD/svg10.dtd">
<svg version="1.0" xmlns="http://www.w3.org/2000/svg"
 width="901.000000pt" height="1280.000000pt" viewBox="0 0 901.000000 1280.000000"
 preserveAspectRatio="xMidYMid meet">
<metadata>
Created by potrace 1.15, written by Peter Selinger 2001-2017
</metadata>
<g transform="translate(0.000000,1280.000000) scale(0.100000,-0.100000)"
fill="#6f83be" stroke="none">
<path d="M3530 12769 c-340 -10 -634 -40 -995 -100 -688 -115 -1530 -361
-2007 -587 -124 -58 -158 -86 -192 -154 l-26 -52 0 -850 0 -851 24 -50 c25
-55 81 -110 134 -132 49 -21 159 -28 221 -14 37 8 98 38 190 94 152 93 334
193 520 286 243 122 591 267 618 257 8 -3 12 -2 8 3 -7 12 181 75 201 67 10
-4 13 -2 8 6 -5 7 0 9 14 6 12 -4 20 -3 17 1 -7 12 143 53 168 46 16 -5 18 -4
8 3 -9 7 37 22 155 50 453 109 733 145 1129 145 344 1 566 -26 817 -98 299
-87 528 -217 723 -411 300 -299 433 -721 396 -1262 -38 -559 -195 -1017 -515
-1497 -352 -530 -1047 -1297 -1997 -2205 -659 -631 -860 -806 -2620 -2296
-228 -193 -428 -366 -443 -384 -59 -70 -56 -27 -56 -955 l0 -853 28 -53 c30
-59 95 -111 160 -129 57 -15 7772 -14 7824 2 56 17 131 87 157 148 22 50 22
51 19 753 l-3 702 -31 55 c-33 60 -99 112 -162 130 -25 7 -915 10 -2687 10
-1457 0 -2667 4 -2687 9 -23 6 -40 5 -47 -2 -6 -6 -13 -9 -15 -6 -3 2 28 31
67 64 39 33 194 165 344 293 150 127 276 232 279 232 4 0 0 -8 -7 -17 -7 -10
1 -5 19 11 36 34 44 49 10 20 -13 -10 -10 -4 6 14 31 33 58 45 35 14 -7 -9 1
-4 19 12 36 34 44 49 10 20 -21 -17 -21 -16 1 9 25 27 48 37 35 15 -4 -7 6 -1
22 13 16 14 94 81 174 150 225 192 530 460 530 464 0 3 -139 -115 -308 -263
-351 -304 -412 -356 -412 -349 0 3 62 58 138 123 75 65 239 207 364 316 125
109 230 198 233 198 3 0 3 -6 -1 -12 -4 -7 12 5 35 27 51 49 55 61 4 15 -30
-28 -28 -25 7 13 42 45 78 66 49 30 -17 -23 119 100 426 383 132 121 247 229
254 240 8 10 -10 -3 -40 -31 -31 -29 -20 -15 26 33 44 45 84 82 90 82 5 0 -5
-14 -23 -31 -19 -17 -32 -32 -30 -34 2 -3 49 42 104 98 79 81 84 88 24 32 -59
-55 -54 -49 25 33 55 56 104 102 109 102 6 0 -5 -17 -24 -38 -19 -20 31 26
110 104 377 366 533 521 542 539 6 11 -17 -9 -50 -45 -34 -36 -61 -60 -62 -55
0 6 69 78 152 160 84 83 119 115 78 73 -41 -43 -72 -78 -70 -78 3 0 46 41 95
92 50 51 80 84 68 74 -29 -24 -30 -5 -2 20 12 10 89 93 172 184 82 91 161 176
175 190 53 52 -61 -81 -193 -225 -76 -82 -104 -116 -64 -75 65 66 214 229 288
315 15 16 18 23 9 16 -33 -25 -18 0 43 72 105 123 112 120 11 -5 l-44 -53 42
45 c54 58 109 127 93 117 -21 -13 -15 5 11 32 13 15 70 87 126 161 56 74 106
135 110 135 5 0 12 4 17 9 5 5 3 6 -4 2 -21 -12 -15 2 25 57 92 125 287 429
336 525 10 19 21 30 28 26 7 -4 8 -3 4 4 -4 6 27 78 67 159 41 81 91 189 112
240 21 51 43 89 48 86 6 -3 7 -1 3 6 -10 16 13 83 26 75 7 -4 8 -2 4 5 -10 16
13 83 26 75 7 -4 8 -2 4 4 -4 6 -4 23 0 37 5 20 9 24 16 13 5 -8 6 -2 2 16 -5
20 -4 27 4 22 8 -5 10 -2 6 8 -3 8 3 44 15 78 53 162 117 464 145 688 53 421
46 897 -19 1269 -152 878 -639 1593 -1417 2082 -135 84 -428 230 -588 292
-609 236 -1317 340 -2150 316z m2190 -7352 c0 -2 -116 -115 -257 -251 l-258
-248 255 251 c242 239 260 256 260 248z m-916 -885 c-17 -15 -134 -121 -260
-236 -126 -115 -243 -221 -259 -235 -66 -56 71 74 270 255 116 106 221 204
234 218 14 14 29 26 35 26 6 -1 -3 -13 -20 -28z"/>
<path d="M1950 10590 c-8 -5 -10 -10 -5 -10 6 0 17 5 25 10 8 5 11 10 5 10 -5
0 -17 -5 -25 -10z"/>
<path d="M1860 10555 c-14 -8 -20 -14 -15 -14 6 0 21 6 35 14 14 8 21 14 15
14 -5 0 -21 -6 -35 -14z"/>
<path d="M1800 10530 c-8 -5 -10 -10 -5 -10 6 0 17 5 25 10 8 5 11 10 5 10 -5
0 -17 -5 -25 -10z"/>
<path d="M1750 10510 c-8 -5 -10 -10 -5 -10 6 0 17 5 25 10 8 5 11 10 5 10 -5
0 -17 -5 -25 -10z"/>
<path d="M1690 10485 c-14 -8 -20 -14 -15 -14 6 0 21 6 35 14 14 8 21 14 15
14 -5 0 -21 -6 -35 -14z"/>
<path d="M1610 10450 c-19 -11 -30 -19 -25 -19 6 0 26 8 45 19 19 11 31 19 25
19 -5 0 -26 -8 -45 -19z"/>
<path d="M1408 10354 c-71 -35 -128 -66 -128 -69 0 -5 259 122 269 131 16 15
-31 -6 -141 -62z"/>
<path d="M7422 7715 c-17 -37 -14 -45 4 -12 9 16 14 31 11 33 -2 2 -9 -7 -15
-21z"/>
<path d="M7386 7635 c-9 -26 -7 -32 5 -12 6 10 9 21 6 23 -2 3 -7 -2 -11 -11z"/>
<path d="M7332 7514 c-18 -35 -32 -68 -32 -72 1 -4 17 24 36 62 19 37 34 70
32 72 -2 2 -18 -26 -36 -62z"/>
<path d="M7260 7370 c-17 -33 -28 -60 -25 -60 2 0 18 27 35 60 17 33 28 60 25
60 -2 0 -18 -27 -35 -60z"/>
<path d="M7195 7250 c-9 -16 -13 -30 -11 -30 3 0 12 14 21 30 9 17 13 30 11
30 -3 0 -12 -13 -21 -30z"/>
<path d="M7160 7190 c-6 -11 -8 -20 -6 -20 3 0 10 9 16 20 6 11 8 20 6 20 -3
0 -10 -9 -16 -20z"/>
<path d="M7130 7140 c-6 -11 -8 -20 -6 -20 3 0 10 9 16 20 6 11 8 20 6 20 -3
0 -10 -9 -16 -20z"/>
<path d="M7071 7043 c-23 -38 -31 -56 -19 -41 25 30 71 108 64 108 -2 0 -22
-30 -45 -67z"/>
<path d="M6966 6885 c-31 -47 -54 -85 -51 -85 2 0 26 33 53 73 58 86 64 97 59
97 -2 0 -29 -38 -61 -85z"/>
<path d="M6870 6745 c-17 -25 -29 -45 -26 -45 3 0 19 20 36 45 17 25 29 45 26
45 -3 0 -19 -20 -36 -45z"/>
<path d="M6735 6560 c-42 -55 -73 -100 -71 -100 3 0 39 45 81 100 42 55 73
100 71 100 -3 0 -39 -45 -81 -100z"/>
<path d="M6614 6403 c-21 -26 -33 -44 -27 -40 14 9 77 87 70 87 -3 0 -22 -21
-43 -47z"/>
<path d="M5850 5555 c-8 -9 -8 -15 -2 -15 12 0 26 19 19 26 -2 2 -10 -2 -17
-11z"/>
<path d="M3140 3068 c-58 -49 -190 -162 -295 -251 -104 -88 -199 -169 -210
-181 l-20 -20 20 15 c64 49 615 519 615 525 0 7 -3 5 -110 -88z"/>
</g>
</svg>
