<?xml version="1.0" standalone="no"?>
<!DOCTYPE svg PUBLIC "-//W3C//DTD SVG 20010904//EN"
 "http://www.w3.org/TR/2001/REC-SVG-20010904/DTD/svg10.dtd">
<svg version="1.0" xmlns="http://www.w3.org/2000/svg"
 width="864.000000pt" height="1280.000000pt" viewBox="0 0 864.000000 1280.000000"
 preserveAspectRatio="xMidYMid meet">
<metadata>
Created by potrace 1.15, written by Peter Selinger 2001-2017
</metadata>
<g transform="translate(0.000000,1280.000000) scale(0.100000,-0.100000)"
fill="#6f83be" stroke="none">
<path d="M3590 12773 c-627 -12 -1318 -124 -2047 -333 -521 -150 -1031 -348
-1119 -436 -79 -78 -75 -25 -72 -970 l3 -841 30 -49 c58 -93 185 -140 319
-117 52 9 90 27 212 100 207 125 341 196 355 187 8 -5 9 -3 4 6 -6 10 -4 12 9
7 11 -5 15 -3 10 5 -5 8 -2 9 10 5 11 -5 15 -3 10 5 -5 8 -2 9 10 5 10 -4 15
-3 11 3 -8 12 33 33 51 26 10 -4 12 -2 8 6 -5 8 -2 9 10 5 11 -5 15 -3 10 5
-5 8 -2 9 10 5 11 -5 15 -3 10 5 -5 8 -2 9 10 5 11 -5 15 -3 10 5 -5 8 -2 9
10 5 11 -5 15 -3 10 5 -5 8 -2 9 10 5 9 -4 15 -3 12 2 -8 12 90 55 105 46 8
-6 10 -4 4 5 -6 10 -4 12 9 7 9 -4 15 -3 12 2 -8 12 70 45 85 36 7 -5 10 -4 5
3 -8 13 29 26 45 16 7 -4 9 -3 6 3 -9 14 48 37 64 27 7 -4 10 -3 5 4 -8 13 29
26 45 16 7 -4 9 -3 5 4 -8 13 59 36 75 26 7 -4 9 -3 5 4 -8 13 89 47 105 36 7
-4 9 -3 5 4 -8 13 178 76 200 68 8 -3 13 -2 10 3 -5 8 134 51 309 95 373 93
660 134 1015 143 667 17 1154 -88 1509 -324 161 -108 314 -286 392 -459 74
-162 106 -389 89 -618 -18 -239 -59 -396 -148 -570 -219 -429 -728 -731 -1414
-841 -207 -33 -293 -38 -758 -44 -462 -6 -487 -7 -530 -27 -56 -26 -107 -76
-131 -129 -17 -37 -19 -83 -19 -718 l0 -678 24 -47 c30 -59 68 -95 126 -120
42 -18 81 -20 550 -26 658 -9 929 -28 1250 -92 697 -137 1109 -521 1235 -1149
64 -321 58 -774 -15 -1109 -107 -488 -473 -952 -925 -1170 -268 -130 -635
-230 -995 -272 -176 -20 -595 -15 -810 10 -801 94 -1686 396 -2373 810 -95 57
-190 109 -212 115 -57 16 -193 14 -251 -4 -66 -19 -126 -72 -155 -137 l-24
-53 0 -825 0 -825 28 -58 c36 -71 67 -96 206 -157 474 -210 1269 -442 1911
-559 679 -124 1432 -159 2050 -95 389 40 749 114 1088 225 83 28 157 47 164
43 6 -4 8 -3 4 4 -8 13 59 36 75 26 7 -4 9 -3 6 3 -9 14 48 37 64 27 7 -4 10
-3 5 4 -8 13 29 26 45 16 8 -5 9 -3 4 6 -6 10 -4 12 9 7 9 -4 15 -3 12 2 -8
12 50 35 65 25 8 -5 9 -3 4 6 -6 10 -4 12 9 7 11 -5 15 -3 10 5 -5 8 -2 9 10
5 11 -5 15 -3 10 5 -5 8 -2 9 10 5 11 -5 15 -3 10 5 -5 8 -2 9 10 5 11 -5 15
-3 10 5 -5 8 -2 9 10 5 11 -5 15 -3 10 5 -5 8 -2 9 10 5 11 -5 15 -3 10 5 -5
8 -2 9 10 5 11 -5 15 -3 10 5 -5 8 -2 9 10 5 11 -5 15 -3 10 5 -5 8 -2 9 10 5
11 -5 15 -3 10 5 -5 8 -2 9 10 5 11 -5 15 -3 10 4 -4 7 -1 10 7 7 13 -5 89 27
89 37 0 3 -19 -4 -42 -15 -56 -26 -37 -14 100 68 254 151 452 305 692 536
l145 140 -155 -155 c-85 -85 -200 -191 -255 -234 -165 -131 -176 -140 -121
-103 94 64 253 201 390 336 177 175 406 447 399 473 -2 5 26 53 61 106 35 54
87 140 116 190 29 51 56 90 61 87 5 -3 6 3 2 12 -4 12 -3 15 5 10 8 -5 10 -1
5 10 -4 12 -3 15 5 10 8 -5 10 -1 5 10 -4 12 -3 15 5 10 8 -5 10 -1 5 10 -4
12 -3 15 5 10 8 -5 10 -1 5 10 -4 12 -3 15 5 10 8 -5 10 -1 5 10 -4 12 -3 15
5 10 8 -5 10 -1 5 10 -4 12 -3 15 5 10 8 -5 10 -1 5 10 -4 12 -3 15 5 10 8 -5
10 -1 5 10 -5 13 -3 15 7 9 9 -6 11 -4 5 4 -9 15 24 93 36 85 5 -3 6 3 2 12
-5 13 -3 15 7 9 9 -5 11 -4 6 4 -10 16 24 102 37 94 6 -3 7 -1 3 5 -4 6 7 51
24 99 155 438 225 943 201 1444 -27 541 -105 871 -293 1240 -243 479 -563 828
-1004 1094 -138 84 -395 211 -541 268 l-112 43 45 22 c25 12 50 19 56 16 7 -5
8 -2 3 6 -6 10 -4 12 9 7 11 -5 15 -3 10 5 -5 8 -2 9 10 5 11 -5 15 -3 10 5
-5 8 -2 9 10 5 10 -4 15 -3 11 3 -8 12 72 53 87 44 7 -4 8 -3 4 4 -4 6 6 18
24 27 47 25 167 103 247 162 75 54 90 62 77 41 -5 -9 -2 -9 9 1 20 16 23 26 5
15 -9 -5 -9 -2 1 9 15 20 36 23 25 5 -20 -32 166 131 291 257 128 127 275 290
232 256 -25 -20 -21 2 5 25 13 12 18 13 13 4 -8 -13 -7 -13 8 -1 18 15 23 26
7 16 -19 -12 -10 12 12 31 22 19 23 19 8 -1 -14 -18 -14 -19 2 -7 9 8 15 19
12 25 -2 7 8 26 22 42 14 17 22 24 18 16 -5 -9 -3 -12 5 -7 6 4 9 11 6 16 -3
5 19 46 49 92 29 46 63 103 75 126 12 24 26 40 31 37 6 -4 7 1 3 11 -4 12 -3
15 5 10 8 -5 10 -1 5 10 -4 12 -3 15 5 10 8 -5 10 -1 5 10 -4 12 -3 15 5 10 8
-5 10 -1 5 10 -4 12 -3 15 5 10 8 -5 10 -1 5 10 -4 12 -3 15 5 10 8 -5 10 -1
5 10 -4 12 -3 15 5 10 8 -5 10 -1 5 10 -5 13 -3 15 7 9 9 -5 11 -4 6 4 -9 15
3 53 15 46 5 -3 6 2 2 11 -3 10 -2 15 3 12 5 -4 10 4 10 15 1 12 18 68 38 124
46 128 81 263 107 418 27 154 37 527 20 713 -60 638 -296 1150 -730 1582 -311
309 -668 538 -1121 718 -573 228 -1327 341 -2180 325z m3454 -4555 c-130 -153
-334 -353 -445 -437 l-44 -33 35 32 c19 18 88 80 154 138 65 59 161 155 214
214 53 60 98 108 100 108 3 0 -3 -10 -14 -22z m137 -5870 c-60 -82 -224 -279
-228 -274 -3 3 26 40 65 84 38 44 95 114 127 156 32 42 60 76 62 76 3 0 -9
-19 -26 -42z"/>
<path d="M1550 10455 c-14 -8 -20 -14 -15 -14 6 0 21 6 35 14 14 8 21 14 15
14 -5 0 -21 -6 -35 -14z"/>
<path d="M7324 8618 c-9 -18 -24 -44 -32 -58 -14 -24 -13 -24 3 -5 19 23 58
95 50 95 -2 0 -12 -15 -21 -32z"/>
<path d="M7225 8458 c-16 -24 -22 -38 -14 -31 15 12 53 73 46 73 -2 0 -17 -19
-32 -42z"/>
<path d="M7159 8363 c-13 -16 -12 -17 4 -4 9 7 17 15 17 17 0 8 -8 3 -21 -13z"/>
<path d="M6440 7659 c-78 -57 -87 -70 -12 -19 54 37 82 61 70 60 -2 -1 -28
-19 -58 -41z"/>
<path d="M6330 7579 c-22 -18 -22 -19 -3 -10 12 6 25 16 28 21 9 15 3 12 -25
-11z"/>
<path d="M6263 7539 c-35 -22 -46 -37 -15 -20 22 13 58 40 52 41 -3 0 -20 -10
-37 -21z"/>
<path d="M6194 7494 c-18 -14 -18 -15 4 -4 12 6 22 13 22 15 0 8 -5 6 -26 -11z"/>
<path d="M6118 7454 c-38 -20 -36 -28 2 -9 17 9 30 18 30 20 0 7 -1 6 -32 -11z"/>
<path d="M7420 2720 c-11 -22 -18 -40 -15 -40 2 0 14 18 25 40 11 22 18 40 15
40 -2 0 -14 -18 -25 -40z"/>
<path d="M7380 2650 c-6 -11 -8 -20 -6 -20 3 0 10 9 16 20 6 11 8 20 6 20 -3
0 -10 -9 -16 -20z"/>
<path d="M7350 2600 c-6 -11 -8 -20 -6 -20 3 0 10 9 16 20 6 11 8 20 6 20 -3
0 -10 -9 -16 -20z"/>
<path d="M7286 2500 c-25 -38 -44 -70 -41 -70 2 0 22 26 43 58 47 70 54 82 49
82 -2 0 -25 -31 -51 -70z"/>
<path d="M6335 1524 l-30 -26 33 22 c17 12 32 23 32 26 0 7 -4 5 -35 -22z"/>
<path d="M6240 1464 c-60 -40 -94 -69 -45 -39 82 50 115 75 102 75 -1 0 -27
-16 -57 -36z"/>
<path d="M6117 1386 c-48 -29 -61 -43 -22 -23 31 16 74 46 65 46 -3 0 -22 -10
-43 -23z"/>
</g>
</svg>
