<?xml version="1.0" standalone="no"?>
<!DOCTYPE svg PUBLIC "-//W3C//DTD SVG 20010904//EN"
 "http://www.w3.org/TR/2001/REC-SVG-20010904/DTD/svg10.dtd">
<svg version="1.0" xmlns="http://www.w3.org/2000/svg"
 width="853.000000pt" height="1280.000000pt" viewBox="0 0 853.000000 1280.000000"
 preserveAspectRatio="xMidYMid meet">
<metadata>
Created by potrace 1.15, written by Peter Selinger 2001-2017
</metadata>
<g transform="translate(0.000000,1280.000000) scale(0.100000,-0.100000)"
fill="#7287c5" stroke="none">
<path d="M3850 10829 c0 -27 -136 -291 -197 -383 -163 -248 -348 -364 -669
-420 -128 -23 -269 -36 -379 -36 l-95 0 0 -669 0 -668 98 -6 c266 -15 455
-133 562 -352 52 -105 77 -210 90 -370 8 -89 10 -753 8 -2085 l-4 -1955 -22
-95 c-56 -248 -197 -407 -412 -466 -30 -8 -103 -17 -162 -21 l-108 -6 0 -723
0 -724 1695 0 1695 0 -2 723 -3 722 -100 7 c-244 18 -380 80 -441 199 -32 63
-61 173 -81 306 -16 99 -17 403 -20 3571 l-4 3462 -724 0 c-530 0 -725 -3
-725 -11z"/>
<path d="M5410 10392 c0 -11 8 -26 18 -34 29 -26 431 -308 447 -314 12 -5 15
5 15 53 l0 59 -182 127 -181 127 -59 0 c-50 0 -58 -3 -58 -18z"/>
<path d="M5705 10402 c19 -18 157 -113 172 -119 11 -5 13 6 11 58 l-3 64 -95
3 c-58 2 -91 -1 -85 -6z"/>
<path d="M5412 10189 l3 -64 229 -162 c126 -90 233 -163 238 -163 4 0 8 24 8
53 0 43 -5 58 -22 74 -21 18 -414 298 -446 317 -10 6 -12 -6 -10 -55z"/>
<path d="M5412 9949 l3 -63 229 -163 c126 -90 233 -163 238 -163 4 0 8 24 8
53 0 43 -5 58 -22 74 -21 18 -414 298 -446 317 -10 6 -12 -6 -10 -55z"/>
<path d="M5410 9710 l0 -59 224 -161 c124 -88 232 -163 240 -166 13 -5 16 3
16 48 0 44 -4 58 -22 75 -27 24 -446 323 -453 323 -3 0 -5 -27 -5 -60z"/>
<path d="M5410 9471 l0 -58 226 -162 c125 -90 233 -165 240 -168 11 -4 14 8
14 54 l0 58 -234 168 c-129 92 -237 167 -240 167 -4 0 -6 -26 -6 -59z"/>
<path d="M5410 9243 c0 -32 4 -63 8 -69 8 -12 441 -324 459 -331 10 -4 13 10
13 54 l0 59 -197 141 c-109 78 -217 156 -240 173 l-43 32 0 -59z"/>
<path d="M5410 9003 c0 -44 5 -64 18 -76 29 -27 447 -326 455 -327 4 0 7 26 7
58 l0 58 -227 164 c-126 90 -234 168 -240 173 -10 7 -13 -4 -13 -50z"/>
<path d="M5412 8759 l3 -63 230 -167 c127 -93 233 -168 238 -168 4 -1 7 25 7
58 l0 59 -232 168 c-127 93 -236 171 -240 173 -5 1 -8 -25 -6 -60z"/>
<path d="M5410 8521 l0 -59 232 -168 c127 -93 235 -170 240 -172 4 -2 8 23 8
57 l0 60 -234 170 c-129 94 -237 171 -240 171 -3 0 -6 -26 -6 -59z"/>
<path d="M5410 8292 c0 -72 -25 -47 275 -267 l200 -146 3 52 c2 28 1 57 -2 64
-2 7 -105 86 -228 175 -123 90 -229 167 -235 173 -10 7 -13 -4 -13 -51z"/>
<path d="M5412 8050 l3 -63 229 -169 c126 -92 233 -168 238 -168 4 0 8 24 8
53 0 43 -5 58 -22 74 -23 21 -386 288 -434 319 l-25 17 3 -63z"/>
<path d="M5410 7817 l0 -63 230 -170 c127 -93 235 -170 240 -172 6 -2 10 21
10 55 l0 59 -127 94 c-71 52 -179 132 -240 177 l-113 83 0 -63z"/>
<path d="M5410 7582 c0 -44 5 -63 18 -74 27 -25 452 -338 458 -338 3 0 4 28 2
61 l-3 62 -235 173 c-129 96 -236 174 -237 174 -2 0 -3 -26 -3 -58z"/>
<path d="M5410 7341 l0 -58 224 -167 c123 -91 231 -169 240 -172 15 -6 17 1
14 52 l-3 59 -230 172 c-126 95 -233 172 -237 173 -5 0 -8 -26 -8 -59z"/>
<path d="M5412 7109 l3 -64 230 -172 c127 -95 233 -173 238 -173 4 0 7 26 7
58 l0 57 -207 155 c-115 85 -223 165 -241 179 l-33 24 3 -64z"/>
<path d="M5410 6871 l0 -59 235 -176 c129 -97 237 -176 240 -176 3 0 5 27 5
60 l0 60 -235 175 c-129 96 -237 175 -240 175 -3 0 -5 -26 -5 -59z"/>
<path d="M5412 6639 l3 -64 229 -172 c126 -95 233 -173 237 -173 5 0 9 24 9
53 0 43 -5 58 -22 74 -23 20 -361 276 -426 322 l-33 23 3 -63z"/>
<path d="M5410 6407 l0 -65 235 -176 c129 -97 237 -176 240 -176 3 0 5 26 5
59 l0 58 -240 182 -240 182 0 -64z"/>
<path d="M5412 6169 l3 -62 229 -174 c125 -95 232 -173 238 -173 5 0 8 26 6
58 l-3 57 -220 168 c-121 92 -228 173 -238 178 -17 9 -18 5 -15 -52z"/>
<path d="M5410 5943 c0 -32 4 -63 8 -69 8 -12 459 -354 467 -354 3 0 5 26 5
59 l0 59 -202 153 c-111 85 -219 167 -240 182 l-38 29 0 -59z"/>
<path d="M5410 5702 l0 -59 225 -172 c124 -94 232 -174 240 -177 12 -5 15 5
15 49 0 54 -1 56 -47 94 -73 60 -421 323 -427 323 -3 0 -6 -26 -6 -58z"/>
<path d="M5412 5469 l3 -63 230 -177 c127 -98 233 -178 238 -178 4 -1 7 26 7
58 l0 60 -227 173 c-126 96 -234 178 -241 182 -10 6 -12 -6 -10 -55z"/>
<path d="M5410 5243 c0 -49 4 -63 23 -80 36 -34 441 -343 450 -343 4 0 7 26 7
58 l0 57 -202 155 c-111 85 -219 168 -240 183 l-38 29 0 -59z"/>
<path d="M5410 5009 l0 -64 238 -184 237 -183 3 52 c2 29 1 58 -2 65 -2 7 -91
79 -198 161 -106 81 -212 163 -235 182 l-43 34 0 -63z"/>
<path d="M5410 4771 l0 -59 234 -181 c129 -99 237 -181 240 -181 3 0 6 26 6
59 l0 58 -235 182 c-129 99 -237 181 -240 181 -3 0 -5 -26 -5 -59z"/>
<path d="M5410 4541 l0 -61 232 -180 c128 -99 236 -180 240 -180 10 0 10 101
0 116 -7 10 -434 343 -459 358 -10 5 -13 -8 -13 -53z"/>
<path d="M5412 4309 l3 -63 235 -184 235 -184 3 52 c2 29 1 58 -2 65 -4 10
-424 344 -464 369 -10 6 -12 -6 -10 -55z"/>
<path d="M5410 4083 c0 -52 3 -62 28 -84 36 -34 440 -349 447 -349 3 0 5 27 5
59 l0 59 -227 178 c-126 97 -234 181 -240 187 -10 7 -13 -4 -13 -50z"/>
<path d="M5423 3856 c4 -27 7 -57 7 -67 0 -18 457 -386 467 -375 3 2 2 31 -2
64 l-7 59 -221 173 c-122 96 -228 178 -236 184 -12 9 -13 3 -8 -38z"/>
<path d="M5476 3604 c10 -42 29 -76 56 -101 30 -28 127 -73 175 -80 36 -6 34
-3 -62 73 -55 44 -117 93 -138 108 l-38 29 7 -29z"/>
<path d="M6052 2879 l3 -63 230 -183 c127 -100 233 -182 238 -183 4 0 7 26 7
58 l0 59 -227 180 c-126 98 -234 183 -241 187 -10 6 -12 -6 -10 -55z"/>
<path d="M6260 2888 c17 -17 239 -190 258 -202 9 -5 12 8 12 53 0 61 0 61 -49
99 -44 35 -57 40 -125 46 -42 4 -84 10 -94 13 -15 5 -15 4 -2 -9z"/>
<path d="M6052 2648 l3 -63 210 -168 c116 -92 222 -177 238 -188 l27 -20 0 63
0 63 -222 175 c-121 96 -230 181 -240 188 -18 13 -19 11 -16 -50z"/>
<path d="M6050 2423 c0 -32 4 -63 8 -69 7 -10 434 -352 460 -367 9 -6 12 6 12
52 l0 60 -172 138 c-95 76 -203 162 -240 192 l-68 53 0 -59z"/>
<path d="M6050 2194 c0 -33 4 -64 8 -70 8 -13 460 -374 467 -374 3 0 5 27 5
59 l0 59 -197 158 c-109 87 -217 173 -240 192 l-43 34 0 -58z"/>
<path d="M6050 1957 l0 -63 234 -187 c129 -103 237 -187 240 -187 3 0 6 26 6
58 l0 58 -240 192 -240 192 0 -63z"/>
<path d="M6020 1775 c-7 -8 -26 -18 -42 -23 -28 -7 -23 -12 172 -170 l202
-162 76 0 c75 0 76 0 57 18 -46 43 -435 352 -444 352 -4 0 -14 -7 -21 -15z"/>
<path d="M3217 1729 c6 -6 91 -78 190 -160 l178 -148 75 -1 c89 0 104 -20
-137 179 l-171 141 -73 0 c-53 0 -70 -3 -62 -11z"/>
<path d="M3661 1580 l193 -160 75 0 c43 0 71 4 65 9 -5 4 -91 76 -192 160
l-183 151 -76 0 -76 0 194 -160z"/>
<path d="M3741 1736 c2 -2 89 -74 193 -160 l189 -156 75 0 c41 0 73 2 71 4 -2
2 -89 74 -193 160 l-190 156 -75 0 c-41 0 -72 -2 -70 -4z"/>
<path d="M4011 1736 c2 -2 89 -74 193 -160 l190 -156 75 0 c44 0 71 4 65 9 -5
5 -92 77 -193 160 l-184 151 -75 0 c-41 0 -73 -2 -71 -4z"/>
<path d="M4397 1642 c65 -53 152 -126 194 -160 l77 -63 73 3 72 3 -191 158
-192 157 -76 0 -76 0 119 -98z"/>
<path d="M4570 1726 c8 -8 95 -80 194 -160 l178 -146 76 0 c46 0 72 4 66 9 -5
5 -92 77 -194 160 l-185 151 -75 0 c-64 0 -72 -2 -60 -14z"/>
<path d="M4831 1737 c2 -2 91 -75 197 -161 l192 -157 74 3 75 3 -194 158 -194
157 -77 0 c-43 0 -75 -2 -73 -3z"/>
<path d="M5116 1732 c5 -5 93 -77 196 -161 l188 -152 74 3 75 3 -194 158 -194
157 -77 0 c-44 0 -74 -4 -68 -8z"/>
<path d="M5391 1736 c2 -2 91 -74 197 -160 l194 -156 76 0 c41 0 72 3 68 8 -4
4 -92 75 -194 159 l-187 152 -79 1 c-44 0 -77 -2 -75 -4z"/>
<path d="M5690 1726 c8 -8 96 -80 195 -160 l180 -146 79 0 78 0 -168 136
c-250 202 -220 184 -305 184 -64 0 -71 -2 -59 -14z"/>
<path d="M3140 1631 l0 -59 91 -76 91 -76 75 0 75 0 -162 135 c-89 74 -164
135 -166 135 -2 0 -4 -27 -4 -59z"/>
<path d="M3140 1445 c0 -21 4 -25 31 -25 27 0 30 2 19 16 -8 8 -22 20 -32 25
-15 8 -18 6 -18 -16z"/>
</g>
</svg>
