<?xml version="1.0" standalone="no"?>
<!DOCTYPE svg PUBLIC "-//W3C//DTD SVG 20010904//EN"
 "http://www.w3.org/TR/2001/REC-SVG-20010904/DTD/svg10.dtd">
<svg version="1.0" xmlns="http://www.w3.org/2000/svg"
 width="853.000000pt" height="1280.000000pt" viewBox="0 0 853.000000 1280.000000"
 preserveAspectRatio="xMidYMid meet">
<metadata>
Created by potrace 1.15, written by Peter Selinger 2001-2017
</metadata>
<g transform="translate(0.000000,1280.000000) scale(0.100000,-0.100000)"
fill="#6f83be" stroke="none">
<path d="M3805 10914 c-540 -62 -1002 -250 -1400 -571 -361 -292 -612 -671
-725 -1097 -198 -748 -47 -1483 395 -1921 144 -143 334 -253 515 -299 80 -20
95 -28 142 -72 29 -27 76 -66 103 -86 59 -42 191 -116 182 -102 -3 6 -67 57
-141 114 -75 57 -134 105 -132 107 1 2 31 0 65 -3 61 -7 65 -9 241 -145 98
-76 187 -142 197 -147 10 -6 41 -13 68 -16 28 -4 65 -9 83 -12 20 -3 32 -1 28
4 -3 5 -89 73 -191 152 -102 78 -182 146 -179 151 3 5 25 9 50 9 42 0 55 -8
252 -160 205 -158 207 -160 257 -159 112 2 113 0 -121 179 l-216 164 47 12 47
12 222 -169 c165 -127 227 -169 243 -166 19 3 20 2 10 -13 -7 -10 -304 -340
-662 -735 -357 -395 -669 -744 -692 -774 -24 -31 -76 -112 -117 -181 -261
-440 -434 -931 -530 -1510 -67 -400 -88 -793 -67 -1278 7 -170 7 -173 34 -200
l27 -27 318 -3 318 -3 120 -101 c263 -222 257 -218 330 -218 35 0 64 3 63 8 0
4 -81 74 -180 156 -98 82 -179 151 -179 153 0 2 22 3 48 3 46 0 52 -3 192
-122 251 -210 232 -198 307 -198 35 0 63 4 61 9 -1 5 -77 70 -168 146 -218
181 -205 165 -143 165 l51 0 191 -160 192 -160 64 0 c36 0 65 4 65 9 0 4 -83
77 -185 162 l-185 153 24 25 24 24 204 -169 c207 -173 247 -204 260 -204 5 0
8 24 8 53 l0 52 -230 190 c-126 105 -229 197 -229 205 1 8 4 26 8 39 6 22 22
11 231 -163 124 -102 227 -186 230 -186 3 0 11 21 18 47 10 38 10 49 0 58 -7
6 -105 87 -218 180 -113 92 -211 174 -219 181 -12 10 -12 18 -1 43 7 17 14 31
16 31 2 0 106 -85 232 -189 l227 -190 27 32 c15 18 27 37 27 42 0 6 -99 91
-219 190 -121 98 -220 183 -220 187 0 5 12 13 28 19 35 14 25 20 264 -177 109
-90 201 -164 205 -164 13 0 93 35 93 40 -1 3 -86 75 -190 160 -105 85 -190
155 -190 157 0 6 62 -22 160 -73 68 -36 143 -86 213 -145 82 -67 115 -89 135
-88 18 2 63 -21 137 -68 123 -79 261 -150 380 -197 44 -18 136 -69 205 -115
114 -75 345 -199 355 -190 2 2 -52 49 -120 104 -68 55 -124 103 -125 106 0 3
21 2 48 -3 26 -6 56 -11 67 -13 11 -3 94 -65 185 -139 l165 -134 95 -20 c52
-12 96 -19 98 -18 1 2 -76 68 -173 146 -96 79 -175 144 -175 146 0 2 24 4 54
4 l54 0 191 -155 191 -156 74 3 75 3 -194 155 c-107 85 -194 158 -194 161 -1
4 20 9 45 13 l46 6 203 -165 c219 -177 217 -176 309 -156 30 6 30 6 -50 72
-43 36 -137 112 -208 169 l-129 104 42 14 42 14 215 -174 c155 -124 222 -172
237 -170 36 5 87 23 87 30 0 4 -91 79 -201 167 -110 88 -205 166 -211 172 -8
10 -1 17 26 28 l36 15 219 -175 c120 -96 224 -175 230 -175 6 0 30 9 52 20
l40 21 -28 23 c-15 13 -113 92 -218 176 -104 84 -191 155 -193 159 -4 12 58
42 71 35 6 -5 104 -82 217 -173 113 -90 210 -168 217 -173 7 -6 26 0 52 18 23
15 41 28 41 29 0 2 -100 83 -222 181 -123 97 -225 179 -227 181 -9 7 44 53 56
49 7 -3 111 -84 232 -181 121 -96 223 -175 228 -175 5 0 22 14 39 31 l29 31
-35 29 c-19 17 -121 98 -227 182 -106 84 -192 155 -193 159 0 4 10 19 23 33
l22 27 233 -187 233 -186 20 23 c47 55 56 43 -191 239 -126 101 -230 188 -230
193 0 6 9 22 19 35 l19 24 226 -179 c124 -98 230 -180 235 -182 9 -3 51 58 51
74 0 5 -104 90 -230 189 -126 99 -229 185 -230 192 0 16 21 63 29 63 3 0 109
-82 234 -181 126 -100 233 -177 237 -173 5 5 15 25 23 46 l15 36 -226 179
c-124 98 -230 181 -235 184 -10 7 9 79 21 79 4 0 110 -81 236 -181 125 -99
229 -179 231 -177 1 2 9 24 18 50 l15 46 -234 184 -235 183 6 35 c4 19 10 38
13 41 4 4 108 -74 232 -172 124 -98 228 -178 232 -178 8 -1 28 65 28 89 0 8
-29 36 -63 62 -34 26 -138 107 -232 181 -158 124 -170 136 -167 163 2 16 7 35
11 42 5 9 77 -42 237 -167 143 -112 231 -175 235 -168 4 7 10 31 14 53 l6 41
-235 184 -235 184 6 40 c3 22 7 42 9 44 1 2 104 -76 228 -173 124 -97 230
-176 236 -176 7 0 10 21 8 57 l-3 57 -227 176 c-239 184 -238 184 -220 247 6
20 26 7 232 -153 l225 -175 6 53 c5 43 3 57 -12 73 -10 10 -114 94 -231 185
-192 148 -213 168 -216 197 -7 73 3 69 213 -94 110 -85 212 -164 228 -174 l27
-20 -1 63 0 63 -229 175 -229 175 -1 48 c0 26 3 47 8 47 4 -1 106 -77 226
-170 155 -120 222 -166 228 -157 4 6 8 32 8 57 l0 45 -230 175 -229 175 -1 53
0 53 108 -83 c59 -46 161 -124 227 -175 l120 -93 7 52 c3 28 4 56 2 62 -3 6
-109 90 -235 186 l-230 175 5 55 c3 30 6 139 8 242 2 211 -3 229 -69 248 -26
8 -243 10 -700 8 l-663 -3 -27 -28 -28 -28 0 -177 c0 -177 0 -177 -30 -237
-16 -32 -42 -68 -58 -79 -61 -45 -171 -20 -457 104 -85 37 -180 75 -210 85
-41 13 -95 50 -207 138 -84 66 -153 123 -153 127 0 3 14 14 30 23 l30 18 224
-175 c124 -97 229 -176 235 -176 13 0 81 42 80 50 0 3 -101 84 -224 180 -124
96 -225 178 -225 181 0 4 12 15 27 24 33 22 14 33 267 -164 110 -86 207 -161
213 -165 12 -6 93 32 93 45 0 3 -101 84 -225 180 -123 96 -224 177 -225 182 0
4 15 15 33 23 l34 16 227 -177 228 -177 35 18 c19 11 38 24 43 29 5 6 -79 78
-216 184 -123 96 -224 177 -224 180 0 15 61 42 73 34 7 -6 102 -79 212 -165
261 -202 234 -188 285 -154 l41 27 -230 179 -231 178 35 22 35 22 153 -118
c83 -65 187 -145 230 -178 l79 -60 36 20 c20 12 38 26 40 32 1 5 -86 79 -195
163 -109 84 -210 163 -225 175 l-28 23 35 21 35 21 213 -164 c117 -90 222
-170 233 -177 18 -11 26 -9 63 14 l42 27 -139 107 c-76 59 -180 138 -230 177
-51 38 -92 72 -92 75 0 3 15 14 34 24 l35 18 193 -148 c106 -81 210 -161 230
-177 l38 -30 40 27 c22 14 40 30 39 34 0 4 -101 84 -224 177 -123 94 -225 173
-225 177 0 3 14 15 32 26 l31 20 120 -91 c65 -51 169 -131 231 -178 l113 -87
41 27 c23 14 42 28 42 31 0 3 -104 84 -230 180 l-230 175 28 22 c15 13 32 23
37 23 6 0 113 -79 239 -175 l229 -175 26 16 c69 45 81 28 -146 200 -114 87
-220 168 -235 180 l-28 23 35 21 c31 19 38 20 55 9 11 -8 116 -88 234 -177
l215 -164 40 29 c22 15 40 30 40 33 0 3 -99 79 -220 170 -121 91 -225 171
-231 177 -8 10 -4 18 13 33 13 10 29 19 36 20 7 0 116 -79 243 -175 l232 -175
40 32 c39 31 40 32 21 47 -11 9 -117 89 -237 179 l-216 163 29 24 c16 14 32
25 35 25 5 0 288 -210 463 -342 8 -7 24 0 48 19 19 15 35 31 35 35 0 4 -100
83 -222 174 -123 92 -227 171 -232 175 -10 9 30 59 47 59 6 0 116 -79 245
-176 l235 -176 36 36 c23 24 32 39 25 44 -6 4 -113 83 -237 177 l-227 169 27
28 c15 15 30 28 33 28 4 0 112 -79 240 -175 250 -187 239 -182 280 -125 l19
26 -234 175 c-129 96 -234 179 -235 185 0 6 11 21 24 34 l25 23 227 -169 c125
-93 233 -172 239 -176 8 -5 23 7 40 32 15 22 26 42 24 44 -2 2 -105 79 -229
171 -124 92 -229 171 -234 175 -9 9 23 70 37 70 5 0 115 -79 244 -175 l236
-176 24 41 c13 22 22 44 19 48 -4 6 -428 324 -464 348 -9 5 34 74 44 70 6 -2
90 -62 185 -133 96 -71 200 -148 231 -171 l57 -42 21 39 c11 22 20 44 20 49 0
4 -106 86 -235 181 -129 95 -235 175 -235 177 0 5 30 66 35 72 2 2 110 -76
241 -173 l239 -177 17 39 c10 21 18 43 18 50 0 6 -106 89 -235 184 -129 96
-235 176 -235 180 0 4 7 23 15 42 l15 36 237 -175 238 -175 13 31 c28 68 33
61 -213 242 l-230 169 2 36 c2 20 7 41 11 45 5 5 111 -66 243 -162 251 -184
248 -183 252 -100 l2 39 -230 169 c-225 165 -230 170 -227 202 1 18 6 38 10
45 5 10 75 -36 240 -157 129 -93 236 -168 238 -165 2 2 5 28 7 57 l2 54 -230
167 c-226 165 -230 169 -226 201 1 18 6 39 10 46 5 9 75 -36 237 -153 215
-156 229 -165 235 -143 4 13 7 39 8 58 0 34 -4 38 -232 202 l-232 168 3 50 c3
35 7 48 15 43 7 -4 111 -79 232 -166 l220 -159 3 52 c2 29 1 58 -1 65 -3 6
-107 85 -231 174 l-226 163 0 49 c0 27 3 49 7 49 3 0 107 -72 230 -161 124
-89 227 -159 230 -156 3 3 2 32 -2 65 l-7 58 -229 165 -229 164 0 53 c0 40 3
51 13 46 6 -5 108 -77 226 -162 117 -84 214 -152 215 -150 1 2 0 31 -2 65 l-4
62 -228 163 -228 163 -4 55 c-2 30 -4 56 -3 57 0 1 100 -70 223 -157 241 -173
233 -171 209 -65 l-12 49 -220 157 -220 157 -11 61 c-8 44 -8 59 0 54 6 -4
102 -72 214 -151 112 -79 205 -143 207 -141 2 2 -4 35 -13 72 l-16 68 -218
155 c-234 166 -218 149 -244 258 l-7 30 29 -21 c16 -11 109 -77 207 -146 97
-70 177 -122 177 -117 0 5 -12 41 -26 80 -30 80 -19 70 -267 245 -93 65 -172
128 -177 139 -4 12 -17 45 -29 74 -13 33 -16 50 -9 46 7 -5 87 -60 178 -124
91 -64 171 -120 179 -125 17 -10 20 -16 -50 103 l-54 94 -178 125 c-160 113
-181 131 -204 177 -14 28 -37 69 -51 91 -14 22 -19 35 -11 29 60 -47 251 -175
255 -172 8 9 -239 251 -324 317 -46 36 -116 106 -161 161 -278 336 -667 599
-1091 736 -181 59 -445 113 -659 134 -142 14 -531 11 -676 -6z m324 -1791
c193 -142 227 -163 251 -158 26 6 27 4 48 -67 24 -80 47 -218 57 -343 l7 -79
-65 61 c-36 33 -110 91 -165 127 -78 52 -99 71 -95 85 3 12 -5 25 -25 40 -17
12 -50 49 -75 84 -56 78 -184 200 -273 262 -38 26 -61 45 -51 41 9 -3 118 -80
241 -171 123 -91 227 -165 232 -164 10 1 69 68 63 73 -2 1 -107 78 -234 170
-126 93 -231 172 -233 176 -4 10 71 39 83 32 6 -3 111 -79 234 -169z m43 141
c26 -13 63 -38 83 -56 34 -29 102 -118 91 -118 -3 0 -40 26 -83 58 -43 32
-107 79 -143 106 -61 45 -63 48 -30 41 19 -4 56 -18 82 -31z m318 -906 l0 -49
-27 19 c-234 169 -248 181 -260 230 -7 26 -13 53 -13 59 0 7 68 -37 150 -98
l150 -111 0 -50z m-127 -80 c67 -50 124 -93 126 -94 2 -2 0 -23 -3 -48 l-7
-45 -117 86 c-64 48 -117 87 -118 88 -4 1 -12 105 -8 105 3 0 60 -41 127 -92z
m5 -228 l101 -75 -6 -40 c-3 -22 -7 -42 -9 -44 -2 -2 -53 34 -115 79 -105 79
-111 85 -105 113 3 16 6 36 6 44 0 17 1 17 128 -77z m-35 -199 c53 -39 97 -77
97 -84 -1 -6 -6 -25 -13 -40 l-12 -28 -107 80 -106 80 10 41 c7 27 14 38 22
32 6 -5 55 -41 109 -81z m-59 -179 l103 -77 -12 -35 c-7 -19 -17 -34 -23 -33
-19 4 -212 155 -207 163 2 4 9 19 14 34 6 14 13 26 16 26 3 0 52 -35 109 -78z
m-69 -170 c55 -42 102 -77 104 -79 3 -2 -3 -19 -12 -39 l-17 -35 -53 37 c-78
57 -177 135 -177 141 0 16 35 61 44 56 6 -4 56 -40 111 -81z m-95 -152 c66
-50 120 -97 120 -104 0 -8 -8 -24 -18 -36 l-17 -21 -128 96 c-70 52 -127 98
-127 102 0 7 41 53 47 53 2 0 58 -41 123 -90z m-100 -146 c83 -63 137 -111
133 -118 -36 -61 -21 -66 -181 56 -81 61 -149 113 -152 116 -4 3 50 52 58 52
2 0 66 -48 142 -106z m-87 -154 c69 -52 126 -99 126 -105 1 -20 -38 -57 -51
-49 -21 13 -338 256 -338 259 0 2 14 12 32 23 l32 21 36 -27 c20 -15 94 -70
163 -122z m-167 -95 c98 -75 183 -140 187 -145 5 -4 -3 -20 -16 -35 l-24 -28
-179 136 c-98 75 -192 147 -209 161 l-30 24 35 15 c19 9 40 14 46 12 6 -2 91
-65 190 -140z m450 -2373 c-53 -3 -59 -1 -111 40 -30 23 -55 46 -55 50 0 3 12
15 27 26 l27 19 84 -66 85 -66 -57 -3z m-216 -1 l24 -19 -43 -12 c-57 -15 -79
1 -41 30 31 24 29 24 60 1z"/>
<path d="M6869 4357 c14 -18 356 -277 364 -277 4 0 7 26 7 58 l0 57 -114 88
-115 87 -77 0 c-63 0 -74 -2 -65 -13z"/>
<path d="M7195 4336 c42 -37 59 -35 53 5 -3 21 -9 24 -48 27 l-45 2 40 -34z"/>
<path d="M2434 1855 c8 -69 8 -69 103 -146 73 -58 75 -59 139 -59 35 0 64 3
63 8 0 8 -284 245 -301 251 -8 3 -9 -12 -4 -54z"/>
<path d="M2442 1678 c2 -15 11 -24 26 -26 30 -4 28 12 -4 33 -25 16 -26 16
-22 -7z"/>
</g>
</svg>
