<?xml version="1.0" standalone="no"?>
<!DOCTYPE svg PUBLIC "-//W3C//DTD SVG 20010904//EN"
 "http://www.w3.org/TR/2001/REC-SVG-20010904/DTD/svg10.dtd">
<svg version="1.0" xmlns="http://www.w3.org/2000/svg"
 width="853.000000pt" height="1280.000000pt" viewBox="0 0 853.000000 1280.000000"
 preserveAspectRatio="xMidYMid meet">
<metadata>
Created by potrace 1.15, written by Peter Selinger 2001-2017
</metadata>
<g transform="translate(0.000000,1280.000000) scale(0.100000,-0.100000)"
fill="#6f83be" stroke="none">
<path d="M3875 10940 c-628 -56 -1150 -297 -1560 -721 -314 -323 -475 -642
-556 -1099 -18 -101 -18 -470 -1 -570 20 -112 58 -257 87 -333 115 -307 324
-549 571 -663 89 -42 235 -82 327 -91 l69 -6 149 -114 149 -114 0 -632 c0
-408 4 -645 11 -670 17 -64 38 -71 248 -79 194 -7 382 -24 430 -38 16 -4 109
-71 207 -148 110 -85 192 -142 212 -147 28 -6 37 -15 54 -53 58 -137 94 -331
107 -578 4 -82 6 -150 5 -152 -1 -2 -24 28 -52 66 -71 95 -206 222 -306 287
-69 45 -92 67 -132 127 -65 96 -220 257 -319 331 -105 79 -255 150 -385 184
-94 24 -122 27 -270 27 -131 0 -186 -5 -267 -22 -263 -57 -446 -153 -618 -327
-206 -208 -341 -472 -412 -804 -26 -118 -27 -143 -28 -386 0 -274 7 -357 52
-570 76 -370 199 -645 413 -925 227 -297 586 -563 956 -710 43 -17 101 -47
129 -67 34 -24 41 -27 22 -9 -34 31 -33 31 56 5 62 -19 87 -34 183 -114 61
-51 128 -102 150 -113 54 -27 214 -85 220 -79 3 2 -56 55 -131 117 -75 62
-135 114 -133 115 2 2 30 -2 63 -7 57 -10 68 -18 224 -146 l163 -135 90 -19
c50 -10 92 -17 94 -15 2 2 -71 64 -161 138 -90 73 -164 136 -165 139 0 3 24 3
54 2 54 -4 57 -5 236 -154 l182 -150 81 -6 81 -5 -34 30 c-19 16 -102 85 -183
151 l-148 122 55 0 56 0 187 -155 188 -155 75 0 c63 0 72 2 60 14 -8 7 -95 79
-193 160 -152 125 -174 146 -150 146 15 0 37 3 49 6 15 4 60 -27 188 -133 252
-208 230 -194 305 -185 l65 7 -189 155 c-103 85 -193 158 -199 162 -15 10 -6
15 41 21 41 5 42 4 247 -163 l205 -168 48 5 c26 3 54 9 61 13 9 4 -53 61 -187
171 -111 90 -201 166 -201 170 0 4 18 9 41 13 37 6 46 3 83 -27 22 -18 117
-95 209 -171 l169 -137 41 7 c90 15 95 8 -131 190 -116 93 -211 171 -211 174
-1 3 18 11 40 17 l41 11 215 -176 215 -175 56 18 c54 17 56 18 36 34 -11 9
-109 88 -218 176 l-198 160 39 16 c44 19 7 43 293 -189 l184 -150 45 16 c24
10 45 21 45 26 1 6 -94 87 -211 180 -116 94 -212 173 -212 176 -1 6 58 30 71
30 4 0 104 -79 223 -175 120 -96 220 -175 224 -175 3 1 25 11 49 23 l43 23
-216 173 c-119 96 -218 177 -220 182 -3 4 9 16 26 27 l31 20 182 -147 c243
-196 262 -211 272 -211 5 0 26 11 48 24 l39 23 -227 183 -227 183 28 18 c15
11 32 19 37 19 5 0 110 -81 233 -180 l224 -179 39 27 c22 15 39 29 39 32 0 3
-99 84 -220 180 -122 96 -223 179 -226 183 -5 8 36 46 51 47 4 0 110 -81 233
-180 240 -192 228 -186 283 -139 22 18 23 22 9 32 -73 55 -439 352 -439 357 0
4 11 17 24 29 l25 23 218 -172 c120 -95 224 -177 230 -183 14 -10 87 38 81 53
-2 5 -106 90 -231 190 l-228 183 22 23 c12 13 27 24 32 24 5 0 110 -80 233
-177 123 -98 228 -178 232 -178 5 0 22 15 37 33 l28 34 -29 23 c-16 13 -120
95 -231 182 -111 87 -202 160 -202 163 0 3 11 17 24 33 l24 27 193 -152 c106
-85 212 -168 235 -186 l41 -32 31 38 30 39 -234 184 c-129 101 -234 186 -234
189 0 3 10 17 22 33 l23 27 225 -176 c123 -97 229 -181 235 -185 13 -11 70 69
57 81 -4 4 -110 87 -235 184 l-227 178 22 33 21 33 61 -47 c33 -27 138 -110
234 -185 l175 -137 23 38 c13 21 23 41 23 45 0 4 -101 87 -225 184 -124 97
-227 180 -230 185 -6 8 21 69 30 69 2 0 108 -81 235 -181 127 -99 233 -179
234 -177 2 1 13 22 24 44 l21 41 -235 183 c-128 101 -234 187 -234 192 0 5 7
23 16 39 14 28 17 29 32 16 42 -36 435 -339 446 -343 7 -3 19 14 28 41 l17 45
-227 176 c-125 97 -231 180 -236 184 -9 9 11 80 22 80 4 0 111 -81 237 -179
l230 -179 11 26 c31 70 37 62 -211 255 -126 98 -231 185 -233 192 -2 7 3 26
10 43 l13 30 230 -178 c127 -98 233 -175 236 -172 3 4 11 26 17 50 l10 43 -66
52 c-37 29 -143 111 -235 183 l-169 129 7 40 c3 21 8 41 10 43 3 3 201 -146
453 -341 17 -13 18 -10 26 49 l6 51 -229 177 c-127 97 -232 180 -234 184 -3 4
-2 26 2 50 l6 42 229 -175 c125 -97 230 -174 233 -172 2 3 6 29 9 58 l5 54
-231 174 -230 174 0 49 c0 26 2 48 5 48 3 0 102 -75 221 -166 118 -91 222
-168 230 -171 11 -4 14 7 14 53 l0 59 -230 175 -230 175 0 52 0 52 222 -169
c121 -94 224 -170 227 -170 3 0 4 28 1 62 l-5 63 -225 172 -225 171 -7 54 c-3
29 -6 54 -4 55 1 1 102 -74 224 -168 123 -93 224 -169 226 -169 1 0 -2 31 -8
69 l-11 70 -220 166 c-121 92 -223 172 -226 178 -4 7 -10 34 -14 61 -5 39 -4
47 7 40 7 -4 104 -77 216 -162 112 -85 205 -152 208 -149 5 5 -11 82 -25 119
-6 15 -95 89 -229 191 -206 156 -220 168 -226 204 -3 21 -9 49 -13 62 -5 19
40 -11 198 -130 112 -85 210 -158 217 -163 15 -9 -43 154 -61 170 -6 6 -102
79 -212 161 l-200 150 -22 64 c-12 35 -20 65 -19 66 2 2 90 -62 195 -142 106
-80 195 -145 198 -145 2 0 -19 45 -48 99 l-52 99 -192 143 -192 144 -41 80
c-23 43 -40 80 -39 81 1 2 71 -49 155 -112 83 -63 152 -111 152 -106 0 4 -35
48 -79 98 -86 99 -198 201 -288 262 -37 25 -79 67 -113 113 -135 182 -358 378
-542 474 -51 26 -95 50 -98 52 -6 5 21 23 36 23 6 0 109 -73 230 -163 120 -89
224 -166 231 -170 11 -7 103 31 103 42 0 4 -104 83 -230 176 -127 94 -229 174
-227 178 1 4 16 17 33 27 l30 20 237 -176 238 -176 40 26 c22 15 39 31 37 36
-2 4 -102 81 -223 170 -121 90 -224 167 -230 172 -12 10 44 59 62 53 6 -2 83
-57 170 -121 87 -65 191 -142 230 -171 l73 -54 37 35 c21 19 36 36 33 39 -3 2
-102 75 -220 162 -277 203 -259 186 -220 218 l31 26 97 -71 c241 -178 319
-235 351 -258 l34 -23 28 31 c16 18 29 36 29 41 0 5 -100 83 -222 173 -122 89
-228 168 -235 173 -11 8 -8 17 14 42 l28 33 239 -177 239 -176 28 34 c16 19
27 39 26 44 -2 6 -108 87 -235 180 -127 94 -232 175 -232 180 0 6 10 22 23 37
l22 27 238 -174 237 -174 26 41 c25 39 25 41 7 58 -10 9 -118 90 -240 179
l-222 162 20 34 c12 19 23 35 26 35 2 0 110 -77 239 -171 129 -95 236 -170
237 -168 10 14 39 90 36 93 -2 2 -107 79 -234 171 -126 92 -232 169 -234 171
-6 5 18 84 26 84 3 0 111 -76 239 -170 129 -93 236 -170 238 -170 6 0 28 88
25 98 -2 6 -105 83 -229 172 -124 90 -229 166 -233 170 -8 7 9 90 18 90 3 0
107 -74 233 -165 125 -90 230 -165 234 -165 9 0 18 32 21 74 2 28 -12 40 -222
193 -124 90 -229 167 -234 172 -14 14 2 93 18 87 7 -2 110 -75 229 -160 119
-86 221 -156 226 -156 7 0 10 22 8 57 l-3 58 -227 164 -228 163 0 44 c0 23 3
45 8 48 4 2 108 -67 230 -155 123 -87 225 -159 227 -159 3 0 5 27 5 60 l0 59
-230 163 -229 163 -1 53 c0 28 2 52 5 52 2 0 105 -72 227 -159 123 -88 224
-154 226 -148 1 7 -1 37 -5 67 l-8 54 -225 161 -225 161 -3 52 c-2 29 0 52 3
52 4 0 101 -68 217 -151 116 -82 212 -148 215 -145 3 3 0 33 -7 68 l-11 63
-211 150 c-116 83 -215 153 -220 156 -9 6 -40 129 -32 129 2 0 96 -66 210
-146 113 -80 207 -144 210 -142 2 3 -8 38 -22 79 l-25 74 -208 147 -209 147
-21 62 c-11 34 -19 64 -17 67 3 2 87 -55 188 -126 101 -72 185 -129 187 -127
5 6 -72 144 -100 178 -15 18 -101 84 -191 147 l-165 115 -44 80 c-24 44 -46
84 -48 90 -2 5 18 -7 45 -26 159 -114 184 -130 184 -120 0 12 -193 186 -270
243 -30 23 -76 69 -102 102 -187 244 -507 500 -824 659 -267 134 -610 232
-946 272 -162 18 -464 26 -593 15z m283 -1614 c73 -53 87 -68 117 -130 20 -38
33 -71 31 -73 -2 -2 -85 56 -185 129 -192 141 -200 152 -96 140 41 -4 65 -17
133 -66z m0 -225 c123 -90 156 -110 168 -100 17 14 19 9 34 -75 15 -89 14 -94
-17 -64 -16 14 -86 67 -156 118 -70 51 -134 102 -142 114 -37 53 -105 159
-105 164 0 2 15 -7 33 -20 17 -14 101 -75 185 -137z m137 -325 c44 -33 80 -60
81 -60 1 -1 4 -23 7 -49 5 -37 4 -48 -6 -45 -7 2 -65 41 -129 88 -111 82 -116
87 -127 133 -6 27 -11 53 -11 59 0 10 35 -14 185 -126z m-31 -201 c64 -47 117
-89 120 -94 3 -4 2 -26 -2 -49 l-7 -40 -114 85 -115 85 0 49 c-1 27 0 49 1 49
2 0 54 -38 117 -85z m-4 -221 l118 -86 -5 -42 c-3 -22 -7 -42 -9 -44 -1 -2
-56 36 -121 84 -65 48 -119 87 -120 88 -4 3 10 86 14 86 3 0 58 -39 123 -86z
m-32 -199 c126 -94 132 -101 116 -162 -6 -20 -17 -14 -139 78 l-132 99 11 40
c5 22 13 39 16 38 3 -2 60 -43 128 -93z m-53 -186 c74 -56 135 -103 135 -106
0 -2 -6 -19 -14 -38 l-15 -34 -140 105 c-78 58 -141 110 -141 114 0 17 23 60
32 60 4 0 69 -46 143 -101z m-96 -150 c75 -56 140 -105 144 -109 14 -12 -24
-62 -43 -57 -9 2 -78 50 -153 106 l-137 102 22 30 c12 16 24 29 27 29 2 0 65
-46 140 -101z m-28 -251 l-42 -18 -125 94 -124 94 30 26 31 26 136 -102 135
-102 -41 -18z m-263 26 c50 -38 88 -72 86 -75 -2 -3 -24 -9 -49 -12 -44 -6
-49 -4 -113 45 -104 80 -101 76 -72 99 14 10 32 17 42 15 9 -2 57 -35 106 -72z
m-211 -61 l65 -48 -58 -6 c-54 -6 -61 -5 -101 25 -23 17 -42 34 -43 37 0 4 56
36 69 38 2 1 32 -20 68 -46z m-236 -41 l22 -19 -50 -7 c-81 -10 -115 13 -45
32 20 5 40 10 43 11 4 1 17 -7 30 -17z m-222 -51 c16 -12 20 -21 12 -25 -6 -4
-11 -16 -11 -26 0 -35 -20 -31 -80 15 -33 25 -60 48 -60 51 0 2 26 4 58 4 40
0 64 -6 81 -19z m1149 -2641 c122 -95 122 -95 122 -137 0 -24 -3 -43 -7 -43
-5 0 -80 57 -168 126 l-160 125 -22 65 -22 65 68 -53 c37 -29 122 -96 189
-148z m112 -353 c0 -45 -1 -47 -18 -35 -10 7 -75 58 -145 113 l-127 100 0 48
0 47 145 -112 144 -113 1 -48z m-82 -110 c57 -46 72 -64 72 -85 0 -61 -12 -56
-151 53 -74 59 -134 111 -133 116 1 5 2 25 3 45 l1 36 68 -53 c37 -29 100 -80
140 -112z m-89 -148 c137 -110 138 -110 132 -145 -3 -19 -10 -35 -14 -36 -5 0
-71 49 -147 110 l-138 111 10 36 c6 19 13 35 15 35 2 0 66 -50 142 -111z m-48
-180 c77 -61 139 -117 139 -124 0 -8 -5 -25 -11 -39 -11 -24 -12 -24 -155 91
-79 63 -144 122 -144 130 0 17 18 53 27 53 3 0 68 -50 144 -111z m-66 -164
l144 -116 -17 -29 c-9 -17 -21 -29 -25 -27 -19 6 -286 223 -287 232 0 11 28
55 36 55 2 0 69 -52 149 -115z m-103 -137 l141 -112 -29 -22 c-16 -13 -33 -20
-39 -15 -66 51 -255 204 -255 208 0 6 34 52 39 53 2 0 66 -50 143 -112z m-163
-85 c53 -42 100 -80 106 -85 5 -4 -15 -8 -47 -8 -53 0 -60 3 -137 63 -44 34
-80 64 -81 67 0 5 50 39 59 40 2 0 47 -34 100 -77z"/>
<path d="M3770 5683 l1 -58 61 -47 61 -48 80 0 80 0 -74 58 c-170 133 -196
152 -202 152 -4 0 -7 -26 -7 -57z"/>
</g>
</svg>
